<svg width="12" height="12" viewBox="0 0 12 12" fill="none" xmlns="http://www.w3.org/2000/svg">
<path d="M10.6402 9.36812C10.3876 8.76969 10.021 8.22612 9.56078 7.76767C9.10198 7.30791 8.5585 6.94134 7.96033 6.68821C7.95497 6.68553 7.94962 6.68419 7.94426 6.68151C8.77863 6.07884 9.32104 5.09714 9.32104 3.98955C9.32104 2.15473 7.83444 0.668121 5.99962 0.668121C4.16479 0.668121 2.67819 2.15473 2.67819 3.98955C2.67819 5.09714 3.2206 6.07884 4.05497 6.68285C4.04962 6.68553 4.04426 6.68687 4.0389 6.68955C3.4389 6.94268 2.90051 7.30562 2.43845 7.76901C1.97869 8.22781 1.61212 8.7713 1.35899 9.36946C1.11031 9.95507 0.976198 10.5829 0.963901 11.219C0.963543 11.2333 0.96605 11.2475 0.971275 11.2608C0.976499 11.2741 0.984334 11.2863 0.994319 11.2965C1.0043 11.3067 1.01624 11.3149 1.02941 11.3204C1.04259 11.326 1.05675 11.3288 1.07104 11.3288H1.87462C1.93354 11.3288 1.98042 11.282 1.98176 11.2244C2.00854 10.1904 2.42372 9.22214 3.15765 8.48821C3.91703 7.72884 4.92551 7.31098 5.99962 7.31098C7.07372 7.31098 8.08221 7.72884 8.84158 8.48821C9.57551 9.22214 9.99069 10.1904 10.0175 11.2244C10.0188 11.2833 10.0657 11.3288 10.1246 11.3288H10.9282C10.9425 11.3288 10.9566 11.326 10.9698 11.3204C10.983 11.3149 10.9949 11.3067 11.0049 11.2965C11.0149 11.2863 11.0227 11.2741 11.028 11.2608C11.0332 11.2475 11.0357 11.2333 11.0353 11.219C11.0219 10.5788 10.8893 9.95607 10.6402 9.36812ZM5.99962 6.29312C5.38488 6.29312 4.80631 6.05339 4.37104 5.61812C3.93578 5.18285 3.69604 4.60428 3.69604 3.98955C3.69604 3.37482 3.93578 2.79625 4.37104 2.36098C4.80631 1.92571 5.38488 1.68598 5.99962 1.68598C6.61435 1.68598 7.19292 1.92571 7.62819 2.36098C8.06346 2.79625 8.30319 3.37482 8.30319 3.98955C8.30319 4.60428 8.06346 5.18285 7.62819 5.61812C7.19292 6.05339 6.61435 6.29312 5.99962 6.29312Z" fill="black" fill-opacity="0.85"/>
</svg>
